<svg width="24" height="24" viewBox="0 0 24 24" fill="none" xmlns="http://www.w3.org/2000/svg">
<path d="M17.0872 2.38341C17.7179 1.96068 18.4352 1.88751 19.2393 2.16391C19.4127 2.22895 19.6334 2.38341 19.9014 2.6273C20.1852 2.85493 20.3271 3.00939 20.3271 3.09068C20.3271 3.13946 20.3665 3.2614 20.4454 3.45651C20.5242 3.63536 20.5794 3.90364 20.6109 4.26134C20.6267 4.61904 20.6897 4.87105 20.8001 5.01738C20.9262 5.19623 21.0129 5.39947 21.0602 5.6271C21.1075 5.83847 21.1391 6.19617 21.1548 6.7002C21.1706 7.20423 21.2021 7.53754 21.2494 7.70013C21.2967 7.86272 21.4386 8.10661 21.6751 8.43179C21.8643 8.69194 22.0062 8.95208 22.1008 9.21223C22.1954 9.48863 22.3215 9.71626 22.4792 9.89511C22.6526 10.074 22.7393 10.1878 22.7393 10.2366C22.7393 10.2853 22.826 10.4317 22.9994 10.6755C23.1571 10.9032 23.2517 11.1552 23.2832 11.4316C23.3148 11.7243 23.3542 11.9194 23.4015 12.0169C23.4803 12.1307 23.5118 12.6022 23.4961 13.4315C23.4803 14.2444 23.4409 14.8135 23.3778 15.1387C23.299 15.4638 23.2517 15.7646 23.2359 16.041C23.2044 16.3174 23.1571 16.4963 23.094 16.5776C22.9206 16.7727 22.7708 17.106 22.6447 17.5775C22.5659 17.8214 22.4319 18.0409 22.2427 18.236C22.0535 18.4149 21.9195 18.5937 21.8406 18.7726C21.7776 18.9189 21.6672 19.0408 21.5096 19.1384C21.3992 19.2197 21.21 19.3579 20.942 19.553C20.7213 19.7156 20.4454 19.8863 20.1143 20.0652C19.4994 20.3741 19.1368 20.5773 19.0264 20.6749C18.5692 21.0976 18.1593 21.3334 17.7967 21.3822C17.576 21.4147 17.2764 21.5285 16.8981 21.7236C16.5985 21.8699 16.3857 21.9512 16.2595 21.9675C16.1492 22 15.8812 22.0081 15.4555 21.9919C14.21 21.9756 13.2561 21.9756 12.594 21.9919C11.853 22.0081 11.0805 21.9919 10.2764 21.9431C9.48811 21.9106 8.99148 21.8537 8.78653 21.7724C8.53427 21.6748 8.27414 21.6017 8.00612 21.5529C7.7381 21.5041 7.53314 21.4472 7.39125 21.3822C7.23359 21.3171 6.9971 21.2927 6.68179 21.309C6.3507 21.309 6.0748 21.244 5.85408 21.1139C5.61759 20.9838 5.43629 20.9025 5.31016 20.87C5.13673 20.8375 5.01061 20.7887 4.93178 20.7237C4.78989 20.6261 4.61646 20.5123 4.41151 20.3822C4.15925 20.2034 3.89123 19.992 3.60745 19.7481C3.33943 19.488 3.13447 19.3254 2.99258 19.2603C2.75609 19.1465 2.40924 18.8051 1.95203 18.236C1.51059 17.667 1.20316 17.1792 1.02973 16.7727C0.809011 16.2849 0.651352 15.5126 0.556757 14.4558C0.462162 13.3989 0.485811 12.6917 0.627703 12.334C0.690767 12.1551 0.75383 11.9031 0.816893 11.5779C0.848425 11.2527 0.919371 11.017 1.02973 10.8707C1.12433 10.7081 1.19527 10.5617 1.24257 10.4317C1.30563 10.2853 1.40023 10.1227 1.52636 9.94389C1.66825 9.74878 1.77073 9.58619 1.83379 9.45611C1.88109 9.3423 1.9678 9.24475 2.09393 9.16345C2.22005 9.08216 2.3383 9.04151 2.44866 9.04151C2.62208 9.04151 2.78762 8.89518 2.94528 8.60251C3.03988 8.39114 3.12659 8.23668 3.20542 8.13913C3.26848 8.00906 3.27636 7.87898 3.22907 7.74891C3.166 7.58632 3.17389 7.26114 3.25272 6.77337C3.34731 6.28559 3.46555 5.89538 3.60745 5.60271C3.65475 5.4889 3.70993 5.32631 3.77299 5.11494C3.82029 4.91983 3.89912 4.70846 4.00948 4.48083C4.11984 4.26947 4.19078 4.09875 4.22232 3.96867C4.25385 3.82234 4.30903 3.72479 4.38786 3.67601C4.46669 3.62723 4.56916 3.4809 4.69529 3.23701C4.88448 2.86306 5.08944 2.67608 5.31016 2.67608C5.42052 2.67608 5.53876 2.65169 5.66489 2.60291C5.77525 2.55413 5.94079 2.51349 6.16151 2.48097C6.38224 2.44845 6.60296 2.38341 6.82368 2.28586C7.06017 2.1883 7.33607 2.19643 7.65139 2.31025C7.98247 2.42406 8.20319 2.59478 8.31355 2.82241C8.42391 3.01752 8.53427 3.18011 8.64463 3.31018C8.755 3.44025 8.82594 3.58658 8.85747 3.74917C8.88901 3.92803 8.9363 4.12313 8.99937 4.3345C9.09396 4.61091 9.17279 4.87918 9.23585 5.13933C9.34621 5.52955 9.48022 5.78969 9.63788 5.91976C9.81131 6.04984 10.0557 6.09861 10.371 6.0661C10.6232 6.03358 10.7888 6.00106 10.8676 5.96854C10.9622 5.91976 11.1829 5.88725 11.5298 5.87099C11.9712 5.85473 12.2077 5.8466 12.2392 5.8466C12.3969 5.83034 12.7201 5.87099 13.2088 5.96854C13.6976 6.04984 14.0208 6.11487 14.1784 6.16365C14.4307 6.27746 14.5962 6.31811 14.6751 6.28559C14.7697 6.25308 14.9037 6.11487 15.0771 5.87099C15.2663 5.57832 15.3688 5.37508 15.3845 5.26127C15.4161 5.1312 15.5028 4.91983 15.6447 4.62717C15.7866 4.3345 15.8969 4.13939 15.9758 4.04184C16.0546 3.96054 16.1019 3.86299 16.1176 3.74917C16.2595 3.19637 16.5827 2.74111 17.0872 2.38341ZM7.79328 12.9437C7.52526 12.8461 7.28089 12.903 7.06017 13.1144C6.83945 13.3095 6.71332 13.5615 6.68179 13.8705C6.66602 14.1631 6.76062 14.4314 6.96557 14.6753C7.37548 15.1143 7.76963 15.1305 8.14801 14.7241C8.54216 14.3176 8.55004 13.8867 8.17166 13.4315C7.98247 13.2201 7.88787 13.09 7.88787 13.0412C7.88787 12.9925 7.85634 12.9599 7.79328 12.9437ZM16.1886 13.0169C16.0782 12.9518 15.9915 12.9193 15.9285 12.9193C15.8812 12.9193 15.7866 12.9518 15.6447 13.0169C15.3924 13.1307 15.2348 13.3502 15.1717 13.6753C15.1086 14.0005 15.1402 14.3013 15.2663 14.5777C15.3924 14.8541 15.5895 14.9923 15.8575 14.9923C16.0152 14.9923 16.1255 15.0167 16.1886 15.0655C16.2674 15.098 16.3305 15.0899 16.3778 15.0411C16.4408 14.9923 16.5276 14.8541 16.6379 14.6265C16.6379 14.6102 16.6537 14.5615 16.6852 14.4802C16.7325 14.3989 16.764 14.3501 16.7798 14.3338C16.8902 14.1225 16.8823 13.8948 16.7562 13.651C16.6458 13.3908 16.4566 13.1794 16.1886 13.0169Z" fill="current"/>
</svg>
