<svg width="24" height="24" viewBox="0 0 24 24" fill="none" xmlns="http://www.w3.org/2000/svg">
<path d="M17.5204 2.05476C17.6307 2.00608 17.8984 1.98986 18.3236 2.00608C18.7646 2.02231 19.0559 2.04665 19.1977 2.0791C19.3394 2.12778 19.5599 2.29003 19.8591 2.56587C20.1583 2.82547 20.3079 2.99584 20.3079 3.07697C20.3079 3.14187 20.3473 3.26356 20.426 3.44204C20.5048 3.63675 20.5599 3.89636 20.5914 4.22087C20.6072 4.54538 20.6702 4.78876 20.7804 4.95102C20.9694 5.24308 21.0875 5.68117 21.1347 6.26529C21.1662 6.67093 21.2292 6.99544 21.3237 7.23882C21.4182 7.44975 21.4812 7.66068 21.5127 7.87162C21.56 8.14745 21.6702 8.38272 21.8434 8.57743C21.9379 8.691 22.0167 8.86949 22.0797 9.11287C22.1427 9.35625 22.2608 9.58341 22.434 9.79434C22.623 9.98905 22.7175 10.1189 22.7175 10.1838C22.7175 10.2324 22.7647 10.3217 22.8592 10.4515C23.1742 10.8409 23.3159 11.1735 23.2844 11.4493C23.2687 11.6278 23.2923 11.7901 23.3553 11.9361C23.4655 12.1308 23.5128 12.6825 23.497 13.5911C23.4813 14.4835 23.4183 15.092 23.3081 15.4165C23.2451 15.5787 23.2136 15.7653 23.2136 15.9763C23.2136 16.171 23.1585 16.3657 23.0482 16.5604C22.9222 16.7389 22.7884 17.0228 22.6466 17.4122C22.5206 17.8016 22.371 18.0613 22.1978 18.1911C22.0403 18.3209 21.9301 18.4588 21.8671 18.6048C21.8356 18.7022 21.7489 18.832 21.6072 18.9942C21.4655 19.1403 21.3631 19.2133 21.3001 19.2133C21.2686 19.2133 21.1662 19.2863 20.993 19.4323C20.8198 19.5783 20.4654 19.7893 19.93 20.0651C19.3945 20.3409 19.048 20.5519 18.8906 20.6979C18.5283 21.0386 18.1504 21.2415 17.7566 21.3064C17.5204 21.355 17.2054 21.4767 16.8117 21.6714C16.4967 21.8337 16.1503 21.931 15.7723 21.9635C15.4101 21.9959 14.8353 21.9716 14.0478 21.8905C13.5754 21.8418 13.2446 21.8499 13.0557 21.9148C12.7407 22.0284 12.3233 22.0284 11.8036 21.9148C11.5202 21.8499 11.2761 21.8418 11.0713 21.8905C10.8666 21.9554 10.6855 21.9635 10.528 21.9148C10.402 21.8824 10.1185 21.858 9.67756 21.8418C9.23659 21.8256 8.92949 21.7769 8.75626 21.6958C8.61452 21.6146 8.39404 21.5497 8.09481 21.5011C7.79559 21.4524 7.55936 21.3875 7.38612 21.3064C7.18139 21.2252 6.93728 21.1928 6.65381 21.209C6.43332 21.2252 6.28371 21.2252 6.20497 21.209C6.14197 21.1928 6.04748 21.1441 5.92149 21.063C5.73251 20.9332 5.52777 20.8358 5.30729 20.7709C4.85058 20.6087 4.30725 20.2517 3.6773 19.7C3.39382 19.4404 3.16547 19.2782 2.99223 19.2133C2.819 19.1321 2.65364 18.9861 2.49615 18.7752C2.33866 18.5805 2.18905 18.4182 2.04731 18.2884C1.92132 18.1748 1.75596 17.972 1.55123 17.68C1.34649 17.3879 1.20475 17.1526 1.12601 16.9741C1.11026 16.9255 1.07089 16.8281 1.0079 16.6821C0.944901 16.5198 0.905529 16.4306 0.88978 16.4144C0.811037 16.2359 0.755916 16.0087 0.724419 15.7329C0.692922 15.4408 0.637801 15.0839 0.559058 14.662C0.496063 14.2564 0.488188 13.94 0.535435 13.7128C0.566932 13.4857 0.559058 13.2828 0.511812 13.1044C0.480314 12.9259 0.511812 12.6825 0.606304 12.3742C0.700796 12.0497 0.763791 11.7739 0.795288 11.5467C0.811037 11.3844 0.850409 11.2141 0.913404 11.0356C0.992147 10.8409 1.06302 10.7273 1.12601 10.6949C1.15751 10.6624 1.19688 10.5651 1.24413 10.4028C1.29137 10.2243 1.37012 10.0702 1.48036 9.94037C1.5906 9.79434 1.70084 9.60775 1.81108 9.38059C1.90557 9.15343 2.05518 8.95061 2.25992 8.77213C2.66938 8.44762 2.92924 8.21235 3.03948 8.06632C3.14972 7.92029 3.19697 7.74992 3.18122 7.55522C3.14972 7.29561 3.22846 6.81696 3.41745 6.11926C3.62218 5.40533 3.82691 4.83744 4.03165 4.41558C4.14189 4.22087 4.19701 4.08295 4.19701 4.00183C4.19701 3.9207 4.27575 3.78278 4.43324 3.58807C4.60647 3.39337 4.69309 3.27168 4.69309 3.223C4.69309 3.10942 4.76396 2.98773 4.9057 2.85793C5.06319 2.72812 5.22855 2.64699 5.40178 2.61454C6.11048 2.46851 6.59081 2.34682 6.84279 2.24947C7.01603 2.18456 7.26013 2.19268 7.57511 2.27381C7.89008 2.35493 8.10269 2.46851 8.21293 2.61454C8.60665 3.13376 8.81925 3.50695 8.85075 3.7341C8.88225 3.86391 8.92949 4.0505 8.99249 4.29388C9.05548 4.47237 9.1421 4.73197 9.25234 5.07271C9.36258 5.5108 9.56732 5.81097 9.86654 5.97323C10.1815 6.11926 10.5122 6.10303 10.8587 5.92455C10.9847 5.85965 11.1579 5.84342 11.3784 5.87588C11.5989 5.8921 11.78 5.87587 11.9217 5.8272C12.0635 5.77852 12.3155 5.77852 12.6777 5.8272C13.5281 5.957 14.0478 6.07058 14.2368 6.16793C14.3943 6.24906 14.5282 6.28151 14.6384 6.26529C14.7329 6.23284 14.8668 6.08681 15.04 5.8272C15.229 5.56759 15.3392 5.36477 15.3707 5.21874C15.3865 5.07271 15.4495 4.878 15.5597 4.63462C15.6857 4.39124 15.8038 4.21276 15.914 4.09918C15.9928 3.96937 16.0637 3.83146 16.1267 3.68543C16.3156 3.06886 16.5597 2.67944 16.859 2.51719C17.0322 2.41984 17.1661 2.32248 17.2606 2.22513C17.3393 2.16023 17.4259 2.10344 17.5204 2.05476ZM18.7016 4.29388C18.4811 4.09918 18.1661 4.13974 17.7566 4.41558C17.3472 4.67519 17.1109 4.99158 17.048 5.36477C16.9535 5.98134 16.8353 6.42754 16.6936 6.70338C16.5519 6.96299 16.2605 7.27127 15.8196 7.62823C15.4573 7.93652 15.1424 8.12311 14.8746 8.18801C14.6069 8.23669 14.2132 8.20424 13.6935 8.09066C13.1738 7.96086 12.7958 7.88784 12.5596 7.87162C12.3391 7.83916 11.9611 7.82294 11.4257 7.82294C10.717 7.83916 10.3075 7.87162 10.1973 7.92029C10.0713 7.96897 9.82717 7.99331 9.46495 7.99331C9.10273 7.99331 8.85075 7.96086 8.70901 7.89595C8.20505 7.68502 7.89008 7.20637 7.76409 6.45999C7.71684 6.13548 7.64598 5.85965 7.55148 5.63249C7.44124 5.38911 7.38612 5.21874 7.38612 5.12139C7.38612 5.02403 7.32313 4.878 7.19714 4.6833C7.0869 4.48859 6.9924 4.3669 6.91366 4.31822C6.70893 4.20464 6.44907 4.25332 6.1341 4.46425C5.81913 4.65896 5.66164 4.878 5.66164 5.12139C5.66164 5.17006 5.60652 5.26742 5.49628 5.41345C5.37029 5.5757 5.29942 5.72173 5.28367 5.85154C5.26792 5.96512 5.23642 6.22472 5.18918 6.63036C5.07894 7.47409 4.88208 8.19613 4.5986 8.79647C4.31512 9.38059 3.88203 9.96471 3.29933 10.5488C2.96861 10.9058 2.77175 11.1248 2.70876 11.206C2.66151 11.2871 2.63789 11.4088 2.63789 11.571C2.63789 11.782 2.60639 11.9442 2.54339 12.0578C2.4489 12.2038 2.40166 12.8447 2.40166 13.9805C2.38591 14.8405 2.45678 15.4246 2.61426 15.7329C2.67726 15.8951 2.7245 16.0736 2.756 16.2683C2.7875 16.4468 2.86624 16.5928 2.99223 16.7064C3.13397 16.82 3.26783 16.966 3.39382 17.1445C3.51981 17.323 3.6773 17.4934 3.86629 17.6556C4.05527 17.8016 4.22851 17.8909 4.38599 17.9233C4.51198 17.9396 4.71672 18.045 5.00019 18.2397C5.29942 18.4182 5.53565 18.5886 5.70888 18.7508C6.40183 19.4323 7.43337 19.7893 8.8035 19.8217C9.74843 19.8379 10.4414 19.9191 10.8823 20.0651C11.0871 20.13 11.4808 20.1381 12.0635 20.0894C12.6619 20.0408 13.0793 20.0489 13.3155 20.1138C13.8195 20.2436 14.5124 20.2274 15.3943 20.0651C16.2763 19.9029 16.9456 19.6676 17.4023 19.3593C17.607 19.2295 17.8433 19.1321 18.111 19.0672C18.7094 18.905 19.0795 18.7022 19.2213 18.4588C19.3 18.329 19.4575 18.1829 19.6937 18.0207C20.0717 17.7773 20.4182 17.4447 20.7331 17.0228C21.0639 16.5847 21.2292 16.244 21.2292 16.0006C21.2292 15.8546 21.3159 15.595 21.4891 15.2218C21.6151 14.9622 21.6859 14.7999 21.7017 14.735C21.7174 14.6539 21.7096 14.5484 21.6781 14.4186C21.6151 14.2564 21.5915 14.1103 21.6072 13.9805C21.6544 12.9096 21.6466 12.3174 21.5836 12.2038C21.5363 12.0903 21.4812 11.9199 21.4182 11.6927C21.371 11.4656 21.2607 11.279 21.0875 11.1329C20.93 10.9869 20.8198 10.8328 20.7568 10.6705C20.6938 10.5083 20.6072 10.3622 20.4969 10.2324C20.3867 10.1026 20.3001 9.9566 20.2371 9.79434C20.1898 9.61586 20.1111 9.41304 20.0008 9.18588C19.8118 8.78025 19.7331 8.25292 19.7646 7.60389C19.7646 7.36051 19.6701 7.05223 19.4811 6.67904C19.2921 6.30585 19.174 5.99757 19.1268 5.75418C19.0953 5.49457 19.048 5.28364 18.985 5.12139C18.922 4.95913 18.8906 4.80499 18.8906 4.65896C18.8906 4.52916 18.8276 4.40746 18.7016 4.29388ZM7.00815 13.007C7.27588 12.861 7.51211 12.8447 7.71684 12.9583C7.93733 13.0557 8.11844 13.2098 8.26017 13.4207C8.40191 13.6155 8.45703 13.8507 8.42554 14.1266C8.40979 14.3862 8.29955 14.6052 8.09481 14.7837C8.01607 14.8486 7.83496 14.881 7.55148 14.881C7.28375 14.8648 7.07902 14.8243 6.93728 14.7594C6.6853 14.6296 6.56719 14.3456 6.58294 13.9075C6.59869 13.4532 6.74042 13.153 7.00815 13.007ZM15.7014 12.934C15.9849 12.8853 16.2605 12.9827 16.5282 13.226C16.796 13.4532 16.9298 13.7209 16.9298 14.0292C16.9298 14.159 16.8668 14.3375 16.7409 14.5646C16.6306 14.7918 16.5282 14.9216 16.4338 14.9541C16.3393 14.9865 16.1581 14.9865 15.8904 14.9541C15.6227 14.9054 15.4495 14.8486 15.3707 14.7837C15.0872 14.5241 14.9849 14.1752 15.0636 13.7371C15.1424 13.2828 15.355 13.0151 15.7014 12.934Z" fill="#441306"/>
</svg>
