<svg width="12" height="12" viewBox="0 0 12 12" fill="none" xmlns="http://www.w3.org/2000/svg">
<path d="M4.17495 1.49995C4.76495 1.41495 5.38995 2.05995 5.56995 2.94995C5.74995 3.83495 5.42495 4.62495 4.83495 4.71495C4.24995 4.80495 3.61995 4.15995 3.43495 3.26995C3.24995 2.38495 3.58495 1.59495 4.17495 1.49995ZM7.74995 1.49995C8.34495 1.59495 8.67495 2.38495 8.49995 3.26995C8.30995 4.15995 7.68495 4.80495 7.09495 4.71495C6.49995 4.62495 6.17495 3.83495 6.35995 2.94995C6.53995 2.05995 7.16495 1.41495 7.74995 1.49995ZM1.49995 3.79995C2.06995 3.55495 2.84495 3.99995 3.24995 4.77495C3.62995 5.56495 3.49995 6.39495 2.93495 6.63995C2.36995 6.88495 1.59995 6.44495 1.20495 5.65995C0.809953 4.87495 0.949953 4.03995 1.49995 3.79995ZM10.5 3.79995C11.05 4.03995 11.19 4.87495 10.795 5.65995C10.4 6.44495 9.62995 6.88495 9.06495 6.63995C8.49995 6.39495 8.36995 5.56495 8.74995 4.77495C9.15495 3.99995 9.92995 3.55495 10.5 3.79995ZM9.66495 9.18995C9.68495 9.65995 9.32495 10.18 8.89495 10.375C7.99995 10.785 6.93995 9.93495 5.94495 9.93495C4.94995 9.93495 3.87995 10.82 2.99995 10.375C2.49995 10.13 2.15495 9.47995 2.21995 8.93995C2.30995 8.19495 3.20495 7.79495 3.73495 7.24995C4.43995 6.54495 4.93995 5.21995 5.94495 5.21995C6.94495 5.21995 7.47495 6.52495 8.14995 7.24995C8.70495 7.85995 9.62995 8.37495 9.66495 9.18995Z" fill="current"/>
</svg>
