<svg width="25" height="24" viewBox="0 0 25 24" fill="none" xmlns="http://www.w3.org/2000/svg">
<path d="M16.5 13H13.5C12.95 13 12.5 13.45 12.5 14V17C12.5 17.55 12.95 18 13.5 18H16.5C17.05 18 17.5 17.55 17.5 17V14C17.5 13.45 17.05 13 16.5 13ZM16.5 3V4H8.5V3C8.5 2.45 8.05 2 7.5 2C6.95 2 6.5 2.45 6.5 3V4H5.5C4.39 4 3.51 4.9 3.51 6L3.5 20C3.5 20.5304 3.71071 21.0391 4.08579 21.4142C4.46086 21.7893 4.96957 22 5.5 22H19.5C20.6 22 21.5 21.1 21.5 20V6C21.5 4.9 20.6 4 19.5 4H18.5V3C18.5 2.45 18.05 2 17.5 2C16.95 2 16.5 2.45 16.5 3ZM18.5 20H6.5C5.95 20 5.5 19.55 5.5 19V9H19.5V19C19.5 19.55 19.05 20 18.5 20Z" fill="#441306"/>
</svg>
